<svg viewBox="0 0 160 160"
	xmlns="http://www.w3.org/2000/svg"
	xmlns:xlink="http://www.w3.org/1999/xlink" xml:space="preserve" overflow="hidden">
	<rect width="24" height="24" fill="none" />
	<g transform="translate(-1767 -1950)">
		<path d="M1848.71 2032.86 1847 2033.2 1845.29 2032.86 1847 2035.4ZM1847 1969.5C1864.55 1969.5 1878.79 1983.76 1878.79 2001.35 1878.79 2005.75 1877.9 2009.94 1876.29 2013.75L1874.01 2017.14 1875.71 2016.8C1893.27 2016.8 1907.5 2031.06 1907.5 2048.65 1907.5 2066.24 1893.27 2080.5 1875.71 2080.5 1866.94 2080.5 1858.99 2076.94 1853.24 2071.17L1847 2061.9 1840.76 2071.17C1835.01 2076.94 1827.06 2080.5 1818.29 2080.5 1800.73 2080.5 1786.5 2066.24 1786.5 2048.65 1786.5 2031.06 1800.73 2016.8 1818.29 2016.8L1819.99 2017.14 1817.71 2013.75C1816.1 2009.94 1815.21 2005.75 1815.21 2001.35 1815.21 1983.76 1829.45 1969.5 1847 1969.5Z" stroke="currentColor" fill="currentColor"/>
	</g>
</svg>
