<svg width="140" height="130"
	xmlns="http://www.w3.org/2000/svg"
	xmlns:xlink="http://www.w3.org/1999/xlink" xml:space="preserve" overflow="hidden">
	<rect width="24" height="24" fill="none" />
	<g transform="translate(-2191 -1899)">
		<path d="M2261 1914.5C2276.81 1914.5 2289.63 1927.35 2289.63 1943.2 2289.63 1947.16 2288.83 1950.93 2287.38 1954.37L2285.81 1957.27 2286.87 1957.11C2302.68 1957.11 2315.5 1969.96 2315.5 1985.8 2315.5 2001.65 2302.68 2014.5 2286.87 2014.5 2278.96 2014.5 2271.8 2011.29 2266.62 2006.1L2261 1997.74 2255.38 2006.1C2250.2 2011.29 2243.04 2014.5 2235.13 2014.5 2219.32 2014.5 2206.5 2001.65 2206.5 1985.8 2206.5 1969.96 2219.32 1957.11 2235.13 1957.11L2236.19 1957.27 2234.62 1954.37C2233.17 1950.93 2232.37 1947.16 2232.37 1943.2 2232.37 1927.35 2245.19 1914.5 2261 1914.5Z" stroke="currentColor" stroke-width="6.875" stroke-miterlimit="8" fill="none"/>
	</g>
</svg>
