<svg xmlns="http://www.w3.org/2000/svg" width="16" height="16" viewBox="0 0 16 16">
	<rect width="16" height="16" fill="none" />
	<path fill="none" stroke="currentColor" d="m7.76.63l-6 3.23c-.16.09-.26.25-.26.44v7.4c0 .18.1.35.26.44l6 3.23c.15.08.33.08.47 0l6-3.23c.16-.09.26-.26.26-.44V4.3c0-.18-.1-.35-.26-.44l-6-3.23a.49.49 0 0 0-.47 0zM1.5 4L8 7.5L14.5 4M8 7.5V15" stroke-width="1" />
	<circle cx="7" cy="9" r="0.9" fill="currentColor" opacity="0.8" />
	<circle cx="9" cy="6" r="0.9" fill="currentColor" opacity="0.8" />
	<circle cx="5" cy="7" r="0.9" fill="currentColor" opacity="0.8" />
	<circle cx="11" cy="8" r="0.9" fill="currentColor" opacity="0.8" />
	<circle cx="9" cy="12" r="0.9" fill="currentColor" opacity="0.8" />
	<circle cx="6" cy="11" r="0.9" fill="currentColor" opacity="0.8" />

</svg>
