<svg width="181" height="181" xmlns="http://www.w3.org/2000/svg" xmlns:xlink="http://www.w3.org/1999/xlink" xml:space="preserve" overflow="hidden">
  <g transform="translate(-3368 -461)">
    <path d="M3411.5 503.5C3411.5 493.007 3420.01 484.5 3430.5 484.5L3506.5 484.5C3516.99 484.5 3525.5 493.007 3525.5 503.5L3525.5 579.5C3525.5 589.993 3516.99 598.5 3506.5 598.5L3430.5 598.5C3420.01 598.5 3411.5 589.993 3411.5 579.5Z" stroke="currentColor" stroke-width="14" stroke-miterlimit="8" fill="none" fill-rule="evenodd"/>
    <path d="M3463.5 606.666C3463.5 613.202 3458.13 618.5 3451.5 618.5L3403.5 618.5C3396.87 618.5 3391.5 613.202 3391.5 606.666L3391.5 559.334C3391.5 552.798 3396.87 547.5 3403.5 547.5" stroke="currentColor" stroke-width="14" stroke-miterlimit="8" fill="none" fill-rule="evenodd"/>
  </g>
</svg>
